<svg version="1.1" xmlns="http://www.w3.org/2000/svg" xmlns:xlink="http://www.w3.org/1999/xlink" width="1437" height="912"><defs><clipPath id="HIGKNfZuOMPk"><path fill="none" stroke="#000000" paint-order="fill stroke markers" d=" M 0 0 L 353 0 L 353 635 L 0 635 L 0 0 Z" stroke-miterlimit="10" stroke-dasharray=""/></clipPath><clipPath id="mSQCxgCrAsal"><path fill="none" stroke="#000000" paint-order="fill stroke markers" d=" M 0 0 L 353 0 L 353 133.8000030517578 L 0 133.8000030517578 L 0 0 Z" stroke-miterlimit="10" stroke-dasharray=""/></clipPath><clipPath id="lWXzUuNoJfzI"><path fill="none" stroke="#000000" paint-order="fill stroke markers" d=" M 0 0 L 1059 0 L 1059 635.4000244140625 L 0 635.4000244140625 L 0 0 Z" stroke-miterlimit="10" stroke-dasharray=""/></clipPath><clipPath id="SywyBMzgyMnl"><path fill="none" stroke="#000000" paint-order="fill stroke markers" d=" M 0 0 L 1059 0 L 1059 133.8000030517578 L 0 133.8000030517578 L 0 0 Z" stroke-miterlimit="10" stroke-dasharray=""/></clipPath></defs><g><g transform="translate(5,138.8000030517578)" clip-path="url(#HIGKNfZuOMPk)"><g><g/><g transform="translate(61.36655062866083,109.4392897916847) scale(0.6546825173530568,0.6546825173530568)"><path fill="none" stroke="black" paint-order="fill stroke markers" d=" M 0 387.0771484375 L 0 387.0771484375 L 0 387.0771484375" stroke-linecap="round" stroke-linejoin="round" stroke-miterlimit="10" stroke-width="1.5274579257791918" stroke-dasharray=""/><path fill="none" stroke="black" paint-order="fill stroke markers" d=" M 0 387.0771484375 L 0 186.779296875 L 21.821869546033945 186.779296875" stroke-linecap="round" stroke-linejoin="round" stroke-miterlimit="10" stroke-width="1.5274579257791918" stroke-dasharray=""/><path fill="none" stroke="black" paint-order="fill stroke markers" d=" M 21.821869546033945 186.779296875 L 21.821869546033945 49.11328125 L 94.36186500718304 49.11328125" stroke-linecap="round" stroke-linejoin="round" stroke-miterlimit="10" stroke-width="1.5274579257791918" stroke-dasharray=""/><path fill="none" stroke="black" paint-order="fill stroke markers" d=" M 94.36186500718304 49.11328125 L 94.36186500718304 0 L 108.57802009063634 0" stroke-linecap="round" stroke-linejoin="round" stroke-miterlimit="10" stroke-width="1.5274579257791918" stroke-dasharray=""/><g transform="translate(108.57802009063634,0) rotate(0,0,0)"><path fill="none" stroke="none"/><text fill="black" stroke="none" font-family="Helvetica" font-size="15pt" font-style="normal" font-weight="normal" text-decoration="normal" x="5.763728962889596" y="7.5" text-anchor="start" dominant-baseline="alphabetic">16244_7#50</text></g><path fill="none" stroke="black" paint-order="fill stroke markers" d=" M 94.36186500718304 49.11328125 L 94.36186500718304 98.2265625 L 126.82008810077609 98.2265625" stroke-linecap="round" stroke-linejoin="round" stroke-miterlimit="10" stroke-width="1.5274579257791918" stroke-dasharray=""/><path fill="none" stroke="black" paint-order="fill stroke markers" d=" M 126.82008810077609 98.2265625 L 126.82008810077609 31.75 L 131.17065268571386 31.75" stroke-linecap="round" stroke-linejoin="round" stroke-miterlimit="10" stroke-width="1.5274579257791918" stroke-dasharray=""/><g transform="translate(131.17065268571386,31.75) rotate(0,0,0)"><path fill="none" stroke="none"/><text fill="black" stroke="none" font-family="Helvetica" font-size="15pt" font-style="normal" font-weight="normal" text-decoration="normal" x="5.763728962889596" y="7.5" text-anchor="start" dominant-baseline="alphabetic">26268_1#207</text></g><path fill="none" stroke="black" paint-order="fill stroke markers" d=" M 126.82008810077609 98.2265625 L 126.82008810077609 164.703125 L 126.82092421771416 164.703125" stroke-linecap="round" stroke-linejoin="round" stroke-miterlimit="10" stroke-width="1.5274579257791918" stroke-dasharray=""/><path fill="none" stroke="black" paint-order="fill stroke markers" d=" M 126.82092421771416 164.703125 L 126.82092421771416 103.1875 L 128.16299483171974 103.1875" stroke-linecap="round" stroke-linejoin="round" stroke-miterlimit="10" stroke-width="1.5274579257791918" stroke-dasharray=""/><path fill="none" stroke="black" paint-order="fill stroke markers" d=" M 128.16299483171974 103.1875 L 128.16299483171974 79.375 L 142.8559212769914 79.375" stroke-linecap="round" stroke-linejoin="round" stroke-miterlimit="10" stroke-width="1.5274579257791918" stroke-dasharray=""/><path fill="none" stroke="black" paint-order="fill stroke markers" d=" M 142.8559212769914 79.375 L 142.8559212769914 63.5 L 142.85675739392948 63.5" stroke-linecap="round" stroke-linejoin="round" stroke-miterlimit="10" stroke-width="1.5274579257791918" stroke-dasharray=""/><g transform="translate(142.85675739392948,63.5) rotate(0,0,0)"><path fill="none" stroke="none"/><text fill="black" stroke="none" font-family="Helvetica" font-size="15pt" font-style="normal" font-weight="normal" text-decoration="normal" x="5.763728962889596" y="7.5" text-anchor="start" dominant-baseline="alphabetic">26237_7#178</text></g><path fill="none" stroke="black" paint-order="fill stroke markers" d=" M 142.8559212769914 79.375 L 142.8559212769914 95.25 L 142.85675739392948 95.25" stroke-linecap="round" stroke-linejoin="round" stroke-miterlimit="10" stroke-width="1.5274579257791918" stroke-dasharray=""/><g transform="translate(142.85675739392948,95.25) rotate(0,0,0)"><path fill="none" stroke="none"/><text fill="black" stroke="none" font-family="Helvetica" font-size="15pt" font-style="normal" font-weight="normal" text-decoration="normal" x="5.763728962889596" y="7.5" text-anchor="start" dominant-baseline="alphabetic">26237_7#179</text></g><path fill="none" stroke="black" paint-order="fill stroke markers" d=" M 128.16299483171974 103.1875 L 128.16299483171974 127 L 136.91141184285874 127" stroke-linecap="round" stroke-linejoin="round" stroke-miterlimit="10" stroke-width="1.5274579257791918" stroke-dasharray=""/><g transform="translate(136.91141184285874,127) rotate(0,0,0)"><path fill="none" stroke="none"/><text fill="black" stroke="none" font-family="Helvetica" font-size="15pt" font-style="normal" font-weight="normal" text-decoration="normal" x="5.763728962889596" y="7.5" text-anchor="start" dominant-baseline="alphabetic">26237_7#137</text></g><path fill="none" stroke="black" paint-order="fill stroke markers" d=" M 126.82092421771416 164.703125 L 126.82092421771416 226.21875 L 128.24105544224716 226.21875" stroke-linecap="round" stroke-linejoin="round" stroke-miterlimit="10" stroke-width="1.5274579257791918" stroke-dasharray=""/><path fill="none" stroke="black" paint-order="fill stroke markers" d=" M 128.24105544224716 226.21875 L 128.24105544224716 198.4375 L 128.24189155918523 198.4375" stroke-linecap="round" stroke-linejoin="round" stroke-miterlimit="10" stroke-width="1.5274579257791918" stroke-dasharray=""/><path fill="none" stroke="black" paint-order="fill stroke markers" d=" M 128.24189155918523 198.4375 L 128.24189155918523 174.625 L 129.6291745268778 174.625" stroke-linecap="round" stroke-linejoin="round" stroke-miterlimit="10" stroke-width="1.5274579257791918" stroke-dasharray=""/><path fill="none" stroke="black" paint-order="fill stroke markers" d=" M 129.6291745268778 174.625 L 129.6291745268778 158.75 L 141.17464098216172 158.75" stroke-linecap="round" stroke-linejoin="round" stroke-miterlimit="10" stroke-width="1.5274579257791918" stroke-dasharray=""/><g transform="translate(141.17464098216172,158.75) rotate(0,0,0)"><path fill="none" stroke="none"/><text fill="black" stroke="none" font-family="Helvetica" font-size="15pt" font-style="normal" font-weight="normal" text-decoration="normal" x="5.763728962889596" y="7.5" text-anchor="start" dominant-baseline="alphabetic">new-sample-1</text></g><path fill="none" stroke="black" paint-order="fill stroke markers" d=" M 129.6291745268778 174.625 L 129.6291745268778 190.5 L 135.37688769538624 190.5" stroke-linecap="round" stroke-linejoin="round" stroke-miterlimit="10" stroke-width="1.5274579257791918" stroke-dasharray=""/><g transform="translate(135.37688769538624,190.5) rotate(0,0,0)"><path fill="none" stroke="none"/><text fill="black" stroke="none" font-family="Helvetica" font-size="15pt" font-style="normal" font-weight="normal" text-decoration="normal" x="5.763728962889596" y="7.5" text-anchor="start" dominant-baseline="alphabetic">26237_7#86</text></g><path fill="none" stroke="black" paint-order="fill stroke markers" d=" M 128.24189155918523 198.4375 L 128.24189155918523 222.25 L 142.5993165657022 222.25" stroke-linecap="round" stroke-linejoin="round" stroke-miterlimit="10" stroke-width="1.5274579257791918" stroke-dasharray=""/><g transform="translate(142.5993165657022,222.25) rotate(0,0,0)"><path fill="none" stroke="none"/><text fill="black" stroke="none" font-family="Helvetica" font-size="15pt" font-style="normal" font-weight="normal" text-decoration="normal" x="5.763728962889596" y="7.5" text-anchor="start" dominant-baseline="alphabetic">26268_1#46</text></g><path fill="none" stroke="black" paint-order="fill stroke markers" d=" M 128.24105544224716 226.21875 L 128.24105544224716 254 L 135.38426188018582 254" stroke-linecap="round" stroke-linejoin="round" stroke-miterlimit="10" stroke-width="1.5274579257791918" stroke-dasharray=""/><g transform="translate(135.38426188018582,254) rotate(0,0,0)"><path fill="none" stroke="none"/><text fill="black" stroke="none" font-family="Helvetica" font-size="15pt" font-style="normal" font-weight="normal" text-decoration="normal" x="5.763728962889596" y="7.5" text-anchor="start" dominant-baseline="alphabetic">26237_7#173</text></g><path fill="none" stroke="black" paint-order="fill stroke markers" d=" M 21.821869546033945 186.779296875 L 21.821869546033945 324.4453125 L 41.69447133377178 324.4453125" stroke-linecap="round" stroke-linejoin="round" stroke-miterlimit="10" stroke-width="1.5274579257791918" stroke-dasharray=""/><path fill="none" stroke="black" paint-order="fill stroke markers" d=" M 41.69447133377178 324.4453125 L 41.69447133377178 285.75 L 49.09008356859562 285.75" stroke-linecap="round" stroke-linejoin="round" stroke-miterlimit="10" stroke-width="1.5274579257791918" stroke-dasharray=""/><g transform="translate(49.09008356859562,285.75) rotate(0,0,0)"><path fill="none" stroke="none"/><text fill="black" stroke="none" font-family="Helvetica" font-size="15pt" font-style="normal" font-weight="normal" text-decoration="normal" x="5.763728962889596" y="7.5" text-anchor="start" dominant-baseline="alphabetic">Reference</text></g><path fill="none" stroke="black" paint-order="fill stroke markers" d=" M 41.69447133377178 324.4453125 L 41.69447133377178 363.140625 L 42.29966630934044 363.140625" stroke-linecap="round" stroke-linejoin="round" stroke-miterlimit="10" stroke-width="1.5274579257791918" stroke-dasharray=""/><path fill="none" stroke="black" paint-order="fill stroke markers" d=" M 42.29966630934044 363.140625 L 42.29966630934044 317.5 L 90.1641603642482 317.5" stroke-linecap="round" stroke-linejoin="round" stroke-miterlimit="10" stroke-width="1.5274579257791918" stroke-dasharray=""/><g transform="translate(90.1641603642482,317.5) rotate(0,0,0)"><path fill="none" stroke="none"/><text fill="black" stroke="none" font-family="Helvetica" font-size="15pt" font-style="normal" font-weight="normal" text-decoration="normal" x="5.763728962889596" y="7.5" text-anchor="start" dominant-baseline="alphabetic">ERR579049</text></g><path fill="none" stroke="black" paint-order="fill stroke markers" d=" M 42.29966630934044 363.140625 L 42.29966630934044 408.78125 L 127.63774560722861 408.78125" stroke-linecap="round" stroke-linejoin="round" stroke-miterlimit="10" stroke-width="1.5274579257791918" stroke-dasharray=""/><path fill="none" stroke="black" paint-order="fill stroke markers" d=" M 127.63774560722861 408.78125 L 127.63774560722861 365.125 L 146.12886930658934 365.125" stroke-linecap="round" stroke-linejoin="round" stroke-miterlimit="10" stroke-width="1.5274579257791918" stroke-dasharray=""/><path fill="none" stroke="black" paint-order="fill stroke markers" d=" M 146.12886930658934 365.125 L 146.12886930658934 349.25 L 157.92704188406674 349.25" stroke-linecap="round" stroke-linejoin="round" stroke-miterlimit="10" stroke-width="1.5274579257791918" stroke-dasharray=""/><g transform="translate(157.92704188406674,349.25) rotate(0,0,0)"><path fill="none" stroke="none"/><text fill="black" stroke="none" font-family="Helvetica" font-size="15pt" font-style="normal" font-weight="normal" text-decoration="normal" x="5.763728962889596" y="7.5" text-anchor="start" dominant-baseline="alphabetic">CNRVC030096_GCCAAT</text></g><path fill="none" stroke="black" paint-order="fill stroke markers" d=" M 146.12886930658934 365.125 L 146.12886930658934 381 L 172.32194128515403 381" stroke-linecap="round" stroke-linejoin="round" stroke-miterlimit="10" stroke-width="1.5274579257791918" stroke-dasharray=""/><g transform="translate(172.32194128515403,381) rotate(0,0,0)"><path fill="none" stroke="none"/><text fill="black" stroke="none" font-family="Helvetica" font-size="15pt" font-style="normal" font-weight="normal" text-decoration="normal" x="5.763728962889596" y="7.5" text-anchor="start" dominant-baseline="alphabetic">new-sample-2</text></g><path fill="none" stroke="black" paint-order="fill stroke markers" d=" M 127.63774560722861 408.78125 L 127.63774560722861 452.4375 L 156.79762555794935 452.4375" stroke-linecap="round" stroke-linejoin="round" stroke-miterlimit="10" stroke-width="1.5274579257791918" stroke-dasharray=""/><path fill="none" stroke="black" paint-order="fill stroke markers" d=" M 156.79762555794935 452.4375 L 156.79762555794935 412.75 L 182.74020789969435 412.75" stroke-linecap="round" stroke-linejoin="round" stroke-miterlimit="10" stroke-width="1.5274579257791918" stroke-dasharray=""/><g transform="translate(182.74020789969435,412.75) rotate(0,0,0)"><path fill="none" stroke="none"/><text fill="black" stroke="none" font-family="Helvetica" font-size="15pt" font-style="normal" font-weight="normal" text-decoration="normal" x="5.763728962889596" y="7.5" text-anchor="start" dominant-baseline="alphabetic">16244_8#7</text></g><path fill="none" stroke="black" paint-order="fill stroke markers" d=" M 156.79762555794935 452.4375 L 156.79762555794935 492.125 L 168.64598348142502 492.125" stroke-linecap="round" stroke-linejoin="round" stroke-miterlimit="10" stroke-width="1.5274579257791918" stroke-dasharray=""/><path fill="none" stroke="black" paint-order="fill stroke markers" d=" M 168.64598348142502 492.125 L 168.64598348142502 460.375 L 208.07568192576116 460.375" stroke-linecap="round" stroke-linejoin="round" stroke-miterlimit="10" stroke-width="1.5274579257791918" stroke-dasharray=""/><path fill="none" stroke="black" paint-order="fill stroke markers" d=" M 208.07568192576116 460.375 L 208.07568192576116 444.5 L 236.46818982446376 444.5" stroke-linecap="round" stroke-linejoin="round" stroke-miterlimit="10" stroke-width="1.5274579257791918" stroke-dasharray=""/><g transform="translate(236.46818982446376,444.5) rotate(0,0,0)"><path fill="none" stroke="none"/><text fill="black" stroke="none" font-family="Helvetica" font-size="15pt" font-style="normal" font-weight="normal" text-decoration="normal" x="5.763728962889596" y="7.5" text-anchor="start" dominant-baseline="alphabetic">SRR308704</text></g><path fill="none" stroke="black" paint-order="fill stroke markers" d=" M 208.07568192576116 460.375 L 208.07568192576116 476.25 L 227.5173239460062 476.25" stroke-linecap="round" stroke-linejoin="round" stroke-miterlimit="10" stroke-width="1.5274579257791918" stroke-dasharray=""/><g transform="translate(227.5173239460062,476.25) rotate(0,0,0)"><path fill="none" stroke="none"/><text fill="black" stroke="none" font-family="Helvetica" font-size="15pt" font-style="normal" font-weight="normal" text-decoration="normal" x="5.763728962889596" y="7.5" text-anchor="start" dominant-baseline="alphabetic">ERR579075</text></g><path fill="none" stroke="black" paint-order="fill stroke markers" d=" M 168.64598348142502 492.125 L 168.64598348142502 523.875 L 205.18724193933068 523.875" stroke-linecap="round" stroke-linejoin="round" stroke-miterlimit="10" stroke-width="1.5274579257791918" stroke-dasharray=""/><path fill="none" stroke="black" paint-order="fill stroke markers" d=" M 205.18724193933068 523.875 L 205.18724193933068 508 L 241.92594243277225 508" stroke-linecap="round" stroke-linejoin="round" stroke-miterlimit="10" stroke-width="1.5274579257791918" stroke-dasharray=""/><g transform="translate(241.92594243277225,508) rotate(0,0,0)"><path fill="none" stroke="none"/><text fill="black" stroke="none" font-family="Helvetica" font-size="15pt" font-style="normal" font-weight="normal" text-decoration="normal" x="5.763728962889596" y="7.5" text-anchor="start" dominant-baseline="alphabetic">0034_L008_R1</text></g><path fill="none" stroke="black" paint-order="fill stroke markers" d=" M 205.18724193933068 523.875 L 205.18724193933068 539.75 L 224.5617549082741 539.75" stroke-linecap="round" stroke-linejoin="round" stroke-miterlimit="10" stroke-width="1.5274579257791918" stroke-dasharray=""/><g transform="translate(224.5617549082741,539.75) rotate(0,0,0)"><path fill="none" stroke="none"/><text fill="black" stroke="none" font-family="Helvetica" font-size="15pt" font-style="normal" font-weight="normal" text-decoration="normal" x="5.763728962889596" y="7.5" text-anchor="start" dominant-baseline="alphabetic">CNRVC090182</text></g><path fill="none" stroke="black" paint-order="fill stroke markers" d=" M 0 387.0771484375 L 0 587.375 L 0 587.375" stroke-linecap="round" stroke-linejoin="round" stroke-miterlimit="10" stroke-width="1.5274579257791918" stroke-dasharray=""/><path fill="none" stroke="black" paint-order="fill stroke markers" d=" M 0 587.375 L 0 571.5 L 353 571.5" stroke-linecap="round" stroke-linejoin="round" stroke-miterlimit="10" stroke-width="1.5274579257791918" stroke-dasharray=""/><g transform="translate(353,571.5) rotate(0,0,0)"><path fill="none" stroke="none"/><text fill="black" stroke="none" font-family="Helvetica" font-size="15pt" font-style="normal" font-weight="normal" text-decoration="normal" x="5.763728962889596" y="7.5" text-anchor="start" dominant-baseline="alphabetic">M66</text></g><path fill="none" stroke="black" paint-order="fill stroke markers" d=" M 0 587.375 L 0 603.25 L 0.0008361169380769747 603.25" stroke-linecap="round" stroke-linejoin="round" stroke-miterlimit="10" stroke-width="1.5274579257791918" stroke-dasharray=""/><g transform="translate(0.0008361169380769747,603.25) rotate(0,0,0)"><path fill="none" stroke="none"/><text fill="black" stroke="none" font-family="Helvetica" font-size="15pt" font-style="normal" font-weight="normal" text-decoration="normal" x="5.763728962889596" y="7.5" text-anchor="start" dominant-baseline="alphabetic">CNRVC961005_CACTCA_L002</text></g></g></g></g><g transform="translate(5,5)" clip-path="url(#mSQCxgCrAsal)"><g><g transform="translate(0.5,0.5)"><path fill="none" stroke="black" paint-order="fill stroke markers" d=" M 10 66 L 343 66" stroke-miterlimit="10" stroke-dasharray=""/><rect fill="black" stroke="none" x="10" y="33" width="333" height="66" fill-opacity="0.2"/></g></g></g><g transform="translate(358,138.8000030517578)" clip-path="url(#lWXzUuNoJfzI)"><g><g><path fill="none" stroke="none"/><rect fill="red" stroke="none" x="141" y="99.04620482870493" width="3" height="187.075529333636" fill-opacity="0.4"/><path fill="none" stroke="none"/><rect fill="blue" stroke="none" x="45" y="473.19726349597687" width="11" height="20.786169925959598" fill-opacity="0.4"/><path fill="none" stroke="none"/><rect fill="blue" stroke="none" x="823" y="473.19726349597687" width="7" height="20.786169925959598" fill-opacity="0.4"/><path fill="none" stroke="none"/><rect fill="blue" stroke="none" x="957" y="473.19726349597687" width="7" height="20.786169925959598" fill-opacity="0.4"/><path fill="none" stroke="none"/><rect fill="blue" stroke="none" x="1003" y="473.19726349597687" width="9" height="20.786169925959598" fill-opacity="0.4"/><path fill="none" stroke="none"/><rect fill="blue" stroke="none" x="730" y="473.19726349597687" width="4" height="20.786169925959598" fill-opacity="0.4"/><path fill="none" stroke="none"/><rect fill="blue" stroke="none" x="76" y="473.19726349597687" width="4" height="20.786169925959598" fill-opacity="0.4"/><path fill="none" stroke="none"/><rect fill="blue" stroke="none" x="127" y="473.19726349597687" width="2" height="20.786169925959598" fill-opacity="0.4"/><path fill="none" stroke="none"/><rect fill="blue" stroke="none" x="209" y="473.19726349597687" width="4" height="20.786169925959598" fill-opacity="0.4"/><path fill="none" stroke="none"/><rect fill="blue" stroke="none" x="677" y="473.19726349597687" width="3" height="20.786169925959598" fill-opacity="0.4"/><path fill="none" stroke="none"/><rect fill="blue" stroke="none" x="654" y="473.19726349597687" width="4" height="20.786169925959598" fill-opacity="0.4"/><path fill="none" stroke="none"/><rect fill="blue" stroke="none" x="445" y="473.19726349597687" width="1" height="20.786169925959598" fill-opacity="0.4"/><path fill="none" stroke="none"/><rect fill="blue" stroke="none" x="1016" y="473.19726349597687" width="3" height="20.786169925959598" fill-opacity="0.4"/><path fill="none" stroke="none"/><rect fill="blue" stroke="none" x="779" y="473.19726349597687" width="1" height="20.786169925959598" fill-opacity="0.4"/><path fill="none" stroke="none"/><rect fill="blue" stroke="none" x="263" y="473.19726349597687" width="3" height="20.786169925959598" fill-opacity="0.4"/><path fill="none" stroke="none"/><rect fill="blue" stroke="none" x="249" y="473.19726349597687" width="3" height="20.786169925959598" fill-opacity="0.4"/><path fill="none" stroke="none"/><rect fill="blue" stroke="none" x="270" y="473.19726349597687" width="2" height="20.786169925959598" fill-opacity="0.4"/><path fill="none" stroke="none"/><rect fill="blue" stroke="none" x="11" y="473.19726349597687" width="2" height="20.786169925959598" fill-opacity="0.4"/><path fill="none" stroke="none"/><rect fill="blue" stroke="none" x="974" y="473.19726349597687" width="2" height="20.786169925959598" fill-opacity="0.4"/><path fill="none" stroke="none"/><rect fill="blue" stroke="none" x="398" y="473.19726349597687" width="2" height="20.786169925959598" fill-opacity="0.4"/><path fill="none" stroke="none"/><rect fill="blue" stroke="none" x="949" y="473.19726349597687" width="1" height="20.786169925959598" fill-opacity="0.4"/><path fill="none" stroke="none"/><rect fill="blue" stroke="none" x="999" y="473.19726349597687" width="1" height="20.786169925959598" fill-opacity="0.4"/><path fill="none" stroke="none"/><rect fill="blue" stroke="none" x="376" y="473.19726349597687" width="2" height="20.786169925959598" fill-opacity="0.4"/><path fill="none" stroke="none"/><rect fill="blue" stroke="none" x="487" y="473.19726349597687" width="4" height="20.786169925959598" fill-opacity="0.4"/><path fill="none" stroke="none"/><rect fill="blue" stroke="none" x="773" y="473.19726349597687" width="2" height="20.786169925959598" fill-opacity="0.4"/><path fill="none" stroke="none"/><rect fill="blue" stroke="none" x="785" y="473.19726349597687" width="1" height="20.786169925959598" fill-opacity="0.4"/><path fill="none" stroke="none"/><rect fill="blue" stroke="none" x="8" y="473.19726349597687" width="0" height="20.786169925959598" fill-opacity="0.4"/><path fill="none" stroke="none"/><rect fill="blue" stroke="none" x="600" y="473.19726349597687" width="0" height="20.786169925959598" fill-opacity="0.4"/><path fill="none" stroke="none"/><rect fill="blue" stroke="none" x="1012" y="473.19726349597687" width="1" height="20.786169925959598" fill-opacity="0.4"/><path fill="none" stroke="none"/><rect fill="red" stroke="none" x="873" y="473.19726349597687" width="0" height="41.57233985191914" fill-opacity="0.4"/></g></g></g><g transform="translate(358,774.2000122070312)" clip-path="url(#SywyBMzgyMnl)"><g><g><path fill="none" stroke="black" paint-order="fill stroke markers" d=" M 0 133 L 1 133 L 2 133 L 3 133 L 4 133 L 5 133 L 6 133 L 7 133 L 8 133 L 9 133 L 10 133 L 11 133 L 12 0 L 13 0 L 14 133 L 15 133 L 16 133 L 17 133 L 18 133 L 19 133 L 20 133 L 21 133 L 22 133 L 23 133 L 24 133 L 25 133 L 26 133 L 27 133 L 28 133 L 29 133 L 30 133 L 31 133 L 32 133 L 33 133 L 34 133 L 35 133 L 36 133 L 37 133 L 38 133 L 39 133 L 40 133 L 41 133 L 42 133 L 43 133 L 44 133 L 45 133 L 46 0 L 47 0 L 48 0 L 49 0 L 50 0 L 51 0 L 52 0 L 53 0 L 54 0 L 55 0 L 56 0 L 57 133 L 58 133 L 59 133 L 60 133 L 61 133 L 62 133 L 63 133 L 64 133 L 65 133 L 66 133 L 67 133 L 68 133 L 69 133 L 70 133 L 71 133 L 72 133 L 73 133 L 74 133 L 75 133 L 76 133 L 77 0 L 78 0 L 79 0 L 80 0 L 81 133 L 82 133 L 83 133 L 84 133 L 85 133 L 86 133 L 87 133 L 88 133 L 89 133 L 90 133 L 91 133 L 92 133 L 93 133 L 94 133 L 95 133 L 96 133 L 97 133 L 98 133 L 99 133 L 100 133 L 101 133 L 102 133 L 103 133 L 104 133 L 105 133 L 106 133 L 107 133 L 108 133 L 109 133 L 110 133 L 111 133 L 112 133 L 113 133 L 114 133 L 115 133 L 116 133 L 117 133 L 118 133 L 119 133 L 120 133 L 121 133 L 122 133 L 123 133 L 124 133 L 125 133 L 126 133 L 127 133 L 128 0 L 129 0 L 130 133 L 131 133 L 132 133 L 133 133 L 134 133 L 135 133 L 136 133 L 137 133 L 138 133 L 139 133 L 140 133 L 141 133 L 142 0 L 143 0 L 144 0 L 145 133 L 146 133 L 147 133 L 148 133 L 149 133 L 150 133 L 151 133 L 152 133 L 153 133 L 154 133 L 155 133 L 156 133 L 157 133 L 158 133 L 159 133 L 160 133 L 161 133 L 162 133 L 163 133 L 164 133 L 165 133 L 166 133 L 167 133 L 168 133 L 169 133 L 170 133 L 171 133 L 172 133 L 173 133 L 174 133 L 175 133 L 176 133 L 177 133 L 178 133 L 179 133 L 180 133 L 181 133 L 182 133 L 183 133 L 184 133 L 185 133 L 186 133 L 187 133 L 188 133 L 189 133 L 190 133 L 191 133 L 192 133 L 193 133 L 194 133 L 195 133 L 196 133 L 197 133 L 198 133 L 199 133 L 200 133 L 201 133 L 202 133 L 203 133 L 204 133 L 205 133 L 206 133 L 207 133 L 208 133 L 209 133 L 210 0 L 211 0 L 212 0 L 213 0 L 214 133 L 215 133 L 216 133 L 217 133 L 218 133 L 219 133 L 220 133 L 221 133 L 222 133 L 223 133 L 224 133 L 225 133 L 226 133 L 227 133 L 228 133 L 229 133 L 230 133 L 231 133 L 232 133 L 233 133 L 234 133 L 235 133 L 236 133 L 237 133 L 238 133 L 239 133 L 240 133 L 241 133 L 242 133 L 243 133 L 244 133 L 245 133 L 246 133 L 247 133 L 248 133 L 249 133 L 250 0 L 251 0 L 252 0 L 253 133 L 254 133 L 255 133 L 256 133 L 257 133 L 258 133 L 259 133 L 260 133 L 261 133 L 262 133 L 263 133 L 264 0 L 265 0 L 266 0 L 267 133 L 268 133 L 269 133 L 270 133 L 271 0 L 272 0 L 273 133 L 274 133 L 275 133 L 276 133 L 277 133 L 278 133 L 279 133 L 280 133 L 281 133 L 282 133 L 283 133 L 284 133 L 285 133 L 286 133 L 287 133 L 288 133 L 289 133 L 290 133 L 291 133 L 292 133 L 293 133 L 294 133 L 295 133 L 296 133 L 297 133 L 298 133 L 299 133 L 300 133 L 301 133 L 302 133 L 303 133 L 304 133 L 305 133 L 306 133 L 307 133 L 308 133 L 309 133 L 310 133 L 311 133 L 312 133 L 313 133 L 314 133 L 315 133 L 316 133 L 317 133 L 318 133 L 319 133 L 320 133 L 321 133 L 322 133 L 323 133 L 324 133 L 325 133 L 326 133 L 327 133 L 328 133 L 329 133 L 330 133 L 331 133 L 332 133 L 333 133 L 334 133 L 335 133 L 336 133 L 337 133 L 338 133 L 339 133 L 340 133 L 341 133 L 342 133 L 343 133 L 344 133 L 345 133 L 346 133 L 347 133 L 348 133 L 349 133 L 350 133 L 351 133 L 352 133 L 353 133 L 354 133 L 355 133 L 356 133 L 357 133 L 358 133 L 359 133 L 360 133 L 361 133 L 362 133 L 363 133 L 364 133 L 365 133 L 366 133 L 367 133 L 368 133 L 369 133 L 370 133 L 371 133 L 372 133 L 373 133 L 374 133 L 375 133 L 376 133 L 377 0 L 378 0 L 379 133 L 380 133 L 381 133 L 382 133 L 383 133 L 384 133 L 385 133 L 386 133 L 387 133 L 388 133 L 389 133 L 390 133 L 391 133 L 392 133 L 393 133 L 394 133 L 395 133 L 396 133 L 397 133 L 398 133 L 399 0 L 400 0 L 401 133 L 402 133 L 403 133 L 404 133 L 405 133 L 406 133 L 407 133 L 408 133 L 409 133 L 410 133 L 411 133 L 412 133 L 413 133 L 414 133 L 415 133 L 416 133 L 417 133 L 418 133 L 419 133 L 420 133 L 421 133 L 422 133 L 423 133 L 424 133 L 425 133 L 426 133 L 427 133 L 428 133 L 429 133 L 430 133 L 431 133 L 432 133 L 433 133 L 434 133 L 435 133 L 436 133 L 437 133 L 438 133 L 439 133 L 440 133 L 441 133 L 442 133 L 443 133 L 444 133 L 445 133 L 446 0 L 447 133 L 448 133 L 449 133 L 450 133 L 451 133 L 452 133 L 453 133 L 454 133 L 455 133 L 456 133 L 457 133 L 458 133 L 459 133 L 460 133 L 461 133 L 462 133 L 463 133 L 464 133 L 465 133 L 466 133 L 467 133 L 468 133 L 469 133 L 470 133 L 471 133 L 472 133 L 473 133 L 474 133 L 475 133 L 476 133 L 477 133 L 478 133 L 479 133 L 480 133 L 481 133 L 482 133 L 483 133 L 484 133 L 485 133 L 486 133 L 487 133 L 488 0 L 489 0 L 490 0 L 491 0 L 492 133 L 493 133 L 494 133 L 495 133 L 496 133 L 497 133 L 498 133 L 499 133 L 500 133 L 501 133 L 502 133 L 503 133 L 504 133 L 505 133 L 506 133 L 507 133 L 508 133 L 509 133 L 510 133 L 511 133 L 512 133 L 513 133 L 514 133 L 515 133 L 516 133 L 517 133 L 518 133 L 519 133 L 520 133 L 521 133 L 522 133 L 523 133 L 524 133 L 525 133 L 526 133 L 527 133 L 528 133 L 529 133 L 530 133 L 531 133 L 532 133 L 533 133 L 534 133 L 535 133 L 536 133 L 537 133 L 538 133 L 539 133 L 540 133 L 541 133 L 542 133 L 543 133 L 544 133 L 545 133 L 546 133 L 547 133 L 548 133 L 549 133 L 550 133 L 551 133 L 552 133 L 553 133 L 554 133 L 555 133 L 556 133 L 557 133 L 558 133 L 559 133 L 560 133 L 561 133 L 562 133 L 563 133 L 564 133 L 565 133 L 566 133 L 567 133 L 568 133 L 569 133 L 570 133 L 571 133 L 572 133 L 573 133 L 574 133 L 575 133 L 576 133 L 577 133 L 578 133 L 579 133 L 580 133 L 581 133 L 582 133 L 583 133 L 584 133 L 585 133 L 586 133 L 587 133 L 588 133 L 589 133 L 590 133 L 591 133 L 592 133 L 593 133 L 594 133 L 595 133 L 596 133 L 597 133 L 598 133 L 599 133 L 600 133 L 601 133 L 602 133 L 603 133 L 604 133 L 605 133 L 606 133 L 607 133 L 608 133 L 609 133 L 610 133 L 611 133 L 612 133 L 613 133 L 614 133 L 615 133 L 616 133 L 617 133 L 618 133 L 619 133 L 620 133 L 621 133 L 622 133 L 623 133 L 624 133 L 625 133 L 626 133 L 627 133 L 628 133 L 629 133 L 630 133 L 631 133 L 632 133 L 633 133 L 634 133 L 635 133 L 636 133 L 637 133 L 638 133 L 639 133 L 640 133 L 641 133 L 642 133 L 643 133 L 644 133 L 645 133 L 646 133 L 647 133 L 648 133 L 649 133 L 650 133 L 651 133 L 652 133 L 653 133 L 654 133 L 655 0 L 656 0 L 657 0 L 658 0 L 659 133 L 660 133 L 661 133 L 662 133 L 663 133 L 664 133 L 665 133 L 666 133 L 667 133 L 668 133 L 669 133 L 670 133 L 671 133 L 672 133 L 673 133 L 674 133 L 675 133 L 676 133 L 677 133 L 678 0 L 679 0 L 680 0 L 681 133 L 682 133 L 683 133 L 684 133 L 685 133 L 686 133 L 687 133 L 688 133 L 689 133 L 690 133 L 691 133 L 692 133 L 693 133 L 694 133 L 695 133 L 696 133 L 697 133 L 698 133 L 699 133 L 700 133 L 701 133 L 702 133 L 703 133 L 704 133 L 705 133 L 706 133 L 707 133 L 708 133 L 709 133 L 710 133 L 711 133 L 712 133 L 713 133 L 714 133 L 715 133 L 716 133 L 717 133 L 718 133 L 719 133 L 720 133 L 721 133 L 722 133 L 723 133 L 724 133 L 725 133 L 726 133 L 727 133 L 728 133 L 729 133 L 730 133 L 731 0 L 732 0 L 733 0 L 734 0 L 735 133 L 736 133 L 737 133 L 738 133 L 739 133 L 740 133 L 741 133 L 742 133 L 743 133 L 744 133 L 745 133 L 746 133 L 747 133 L 748 133 L 749 133 L 750 133 L 751 133 L 752 133 L 753 133 L 754 133 L 755 133 L 756 133 L 757 133 L 758 133 L 759 133 L 760 133 L 761 133 L 762 133 L 763 133 L 764 133 L 765 133 L 766 133 L 767 133 L 768 133 L 769 133 L 770 133 L 771 133 L 772 133 L 773 133 L 774 0 L 775 0 L 776 133 L 777 133 L 778 133 L 779 133 L 780 0 L 781 133 L 782 133 L 783 133 L 784 133 L 785 133 L 786 0 L 787 133 L 788 133 L 789 133 L 790 133 L 791 133 L 792 133 L 793 133 L 794 133 L 795 133 L 796 133 L 797 133 L 798 133 L 799 133 L 800 133 L 801 133 L 802 133 L 803 133 L 804 133 L 805 133 L 806 133 L 807 133 L 808 133 L 809 133 L 810 133 L 811 133 L 812 133 L 813 133 L 814 133 L 815 133 L 816 133 L 817 133 L 818 133 L 819 133 L 820 133 L 821 133 L 822 133 L 823 133 L 824 0 L 825 0 L 826 0 L 827 0 L 828 0 L 829 0 L 830 0 L 831 133 L 832 133 L 833 133 L 834 133 L 835 133 L 836 133 L 837 133 L 838 133 L 839 133 L 840 133 L 841 133 L 842 133 L 843 133 L 844 133 L 845 133 L 846 133 L 847 133 L 848 133 L 849 133 L 850 133 L 851 133 L 852 133 L 853 133 L 854 133 L 855 133 L 856 133 L 857 133 L 858 133 L 859 133 L 860 133 L 861 133 L 862 133 L 863 133 L 864 133 L 865 133 L 866 133 L 867 133 L 868 133 L 869 133 L 870 133 L 871 133 L 872 133 L 873 133 L 874 133 L 875 133 L 876 133 L 877 133 L 878 133 L 879 133 L 880 133 L 881 133 L 882 133 L 883 133 L 884 133 L 885 133 L 886 133 L 887 133 L 888 133 L 889 133 L 890 133 L 891 133 L 892 133 L 893 133 L 894 133 L 895 133 L 896 133 L 897 133 L 898 133 L 899 133 L 900 133 L 901 133 L 902 133 L 903 133 L 904 133 L 905 133 L 906 133 L 907 133 L 908 133 L 909 133 L 910 133 L 911 133 L 912 133 L 913 133 L 914 133 L 915 133 L 916 133 L 917 133 L 918 133 L 919 133 L 920 133 L 921 133 L 922 133 L 923 133 L 924 133 L 925 133 L 926 133 L 927 133 L 928 133 L 929 133 L 930 133 L 931 133 L 932 133 L 933 133 L 934 133 L 935 133 L 936 133 L 937 133 L 938 133 L 939 133 L 940 133 L 941 133 L 942 133 L 943 133 L 944 133 L 945 133 L 946 133 L 947 133 L 948 133 L 949 133 L 950 0 L 951 133 L 952 133 L 953 133 L 954 133 L 955 133 L 956 133 L 957 133 L 958 0 L 959 0 L 960 0 L 961 0 L 962 0 L 963 0 L 964 0 L 965 133 L 966 133 L 967 133 L 968 133 L 969 133 L 970 133 L 971 133 L 972 133 L 973 133 L 974 133 L 975 0 L 976 0 L 977 133 L 978 133 L 979 133 L 980 133 L 981 133 L 982 133 L 983 133 L 984 133 L 985 133 L 986 133 L 987 133 L 988 133 L 989 133 L 990 133 L 991 133 L 992 133 L 993 133 L 994 133 L 995 133 L 996 133 L 997 133 L 998 133 L 999 133 L 1000 0 L 1001 133 L 1002 133 L 1003 133 L 1004 0 L 1005 0 L 1006 0 L 1007 0 L 1008 0 L 1009 0 L 1010 0 L 1011 0 L 1012 0 L 1013 0 L 1014 133 L 1015 133 L 1016 133 L 1017 0 L 1018 0 L 1019 0 L 1020 133 L 1021 133 L 1022 133 L 1023 133 L 1024 133 L 1025 133 L 1026 133 L 1027 133 L 1028 133 L 1029 133 L 1030 133 L 1031 133 L 1032 133 L 1033 133 L 1034 133 L 1035 133 L 1036 133 L 1037 133 L 1038 133 L 1039 133 L 1040 133 L 1041 133 L 1042 133 L 1043 133 L 1044 133 L 1045 133 L 1046 133 L 1047 133 L 1048 133 L 1049 133 L 1050 133 L 1051 133 L 1052 133 L 1053 133 L 1054 133 L 1055 133 L 1056 133 L 1057 133 L 1058 133 L 1059 133" stroke-miterlimit="10" stroke-width="2" stroke-dasharray=""/></g><g><path fill="none" stroke="#000000" paint-order="fill stroke markers" d=" M 1059 133 L 0 133 L 0 0" stroke-miterlimit="10" stroke-dasharray=""/></g><path fill="none" stroke="#000000" paint-order="fill stroke markers" d=" M 0 0 L 0 0 L 5 0 L 0 0 L 0 -133 L 5 -133 L 0 -133 L 0 -266 L 5 -266 L 0 -266 L 0 -399 L 5 -399 L 0 -399" stroke-miterlimit="10" stroke-dasharray=""/><g><text fill="black" stroke="none" font-family="Helvetica" font-size="12px" font-style="normal" font-weight="normal" text-decoration="normal" x="5" y="0" text-anchor="start" dominant-baseline="central">1</text><text fill="black" stroke="none" font-family="Helvetica" font-size="12px" font-style="normal" font-weight="normal" text-decoration="normal" x="5" y="-133" text-anchor="start" dominant-baseline="central">2</text><text fill="black" stroke="none" font-family="Helvetica" font-size="12px" font-style="normal" font-weight="normal" text-decoration="normal" x="5" y="-266" text-anchor="start" dominant-baseline="central">3</text><text fill="black" stroke="none" font-family="Helvetica" font-size="12px" font-style="normal" font-weight="normal" text-decoration="normal" x="5" y="-394" text-anchor="start" dominant-baseline="central">4</text></g></g></g></g></svg>